<svg width="32" height="32" viewBox="0 0 32 32" fill="none" xmlns="http://www.w3.org/2000/svg">
<path d="M22.6299 10.2902H20.8888C18.5776 6.04969 16.162 6.02354 14.5306 6.76603C13.3959 7.27845 12.4966 8.23008 11.9476 8.93596C11.6757 9.28106 11.4247 9.64707 11.2365 9.97648C11.1685 10.0967 11.111 10.2013 11.0692 10.285H9.62079L6.99072 25.5895H25.0038L22.6299 10.2902ZM13.0613 8.92028C13.7044 8.22485 14.7188 7.36733 15.8796 7.2523C17.3123 7.11113 18.6718 8.13596 19.9319 10.2902H12.0208C12.2352 9.93988 12.5803 9.43792 13.0613 8.92028ZM10.3214 11.1268H21.9084L24.0208 24.7582H7.98419L10.3214 11.1268Z" fill="black"/>
</svg>
