<svg width="34" height="31" viewBox="0 0 34 31" fill="none" xmlns="http://www.w3.org/2000/svg">
<path fill-rule="evenodd" clip-rule="evenodd" d="M14.4014 17.722L4.03526 14.5087C3.17381 14.2419 2.69669 13.3306 2.96604 12.4739C3.23663 11.6172 4.15187 11.1385 5.01291 11.4049L19.3623 15.8542L17.274 10.4223L17.2744 10.4203C16.4384 8.83805 17.0593 6.87411 18.6602 6.04347L23.9595 15.2794L23.9587 15.2786C24.7988 16.8723 26.2121 17.9758 27.8159 18.4724L31.7265 19.6844L31.7257 19.6864C33.5073 23.0599 32.1962 27.224 28.7968 28.9908C27.3589 28.5451 25.7489 28.6474 24.3073 29.3978C23.1149 30.0198 21.6884 30.1921 20.3043 29.7628L12.2507 27.266C11.3896 26.9992 10.9117 26.0899 11.1823 25.2324C11.45 24.3814 12.357 23.9035 13.2139 24.1606L14.0089 24.4074L11.1515 23.5218C10.2912 23.2554 9.81372 22.3449 10.0835 21.4886C10.3524 20.6327 11.2685 20.1533 12.1279 20.4205L13.4262 20.823L10.5713 19.9369C9.71147 19.6713 9.23394 18.7604 9.5033 17.9054C9.77307 17.0491 10.6875 16.5708 11.5481 16.8376L14.4014 17.722Z" stroke="white" stroke-linecap="round" stroke-linejoin="round"/>
<path fill-rule="evenodd" clip-rule="evenodd" d="M15.4996 1L13.6561 3.52174L12.3474 1.0593L15.4996 1Z" stroke="white" stroke-linecap="round" stroke-linejoin="round"/>
<path fill-rule="evenodd" clip-rule="evenodd" d="M9.82617 4.15217L12.9783 2.26086L9.82617 4.15217Z" stroke="white" stroke-linecap="round" stroke-linejoin="round"/>
<path fill-rule="evenodd" clip-rule="evenodd" d="M1 8.56521L2.84407 6.04347L4.15217 8.50446L1 8.56521Z" stroke="white" stroke-linecap="round" stroke-linejoin="round"/>
<path fill-rule="evenodd" clip-rule="evenodd" d="M3.52197 7.30436L6.67415 5.41306L3.52197 7.30436Z" stroke="white" stroke-linecap="round" stroke-linejoin="round"/>
</svg>
