<svg width="40" height="40" viewBox="0 0 40 40" fill="none" xmlns="http://www.w3.org/2000/svg">
<path d="M11.25 12C10.9739 12 10.75 12.2239 10.75 12.5C10.75 12.7761 10.9739 13 11.25 13V12ZM30.3536 12.8536C30.5488 12.6583 30.5488 12.3417 30.3536 12.1464L27.1716 8.96447C26.9763 8.7692 26.6597 8.7692 26.4645 8.96447C26.2692 9.15973 26.2692 9.47631 26.4645 9.67157L29.2929 12.5L26.4645 15.3284C26.2692 15.5237 26.2692 15.8403 26.4645 16.0355C26.6597 16.2308 26.9763 16.2308 27.1716 16.0355L30.3536 12.8536ZM11.25 13H30V12H11.25V13Z" fill="black"/>
<path d="M10.8964 27.1464C10.7012 27.3417 10.7012 27.6583 10.8964 27.8536L14.0784 31.0355C14.2737 31.2308 14.5903 31.2308 14.7855 31.0355C14.9808 30.8403 14.9808 30.5237 14.7855 30.3284L11.9571 27.5L14.7855 24.6716C14.9808 24.4763 14.9808 24.1597 14.7855 23.9645C14.5903 23.7692 14.2737 23.7692 14.0784 23.9645L10.8964 27.1464ZM30 28C30.2761 28 30.5 27.7761 30.5 27.5C30.5 27.2239 30.2761 27 30 27V28ZM11.25 28H30V27H11.25V28Z" fill="black"/>
</svg>
