<svg width="16" height="16" viewBox="0 0 16 16" fill="none" xmlns="http://www.w3.org/2000/svg">
<g clip-path="url(#clip0_2071_18360)">
<path d="M10.667 8.00234C10.6599 8.71501 10.3752 9.39577 9.87544 9.89556C9.37564 10.3954 8.70141 10.6735 8.00036 10.669C7.29945 10.6732 6.62543 10.395 6.12582 9.89526C5.6262 9.39549 5.34168 8.71487 5.33452 8.00234C5.34276 7.29054 5.62776 6.61099 6.12725 6.11212C6.62675 5.61325 7.30016 5.33561 8.00036 5.33985C8.70071 5.33539 9.37432 5.61293 9.874 6.11182C10.3737 6.61071 10.6588 7.2904 10.667 8.00234ZM12.1048 8.00234C12.101 7.45877 11.9918 6.92128 11.7834 6.42067C11.5751 5.92006 11.2716 5.46614 10.8904 5.08493C10.5092 4.70371 10.0578 4.40267 9.56206 4.19905C9.06629 3.99543 8.53587 3.89323 8.00118 3.8983C7.46643 3.89312 6.93593 3.99524 6.44005 4.19881C5.94418 4.40238 5.49268 4.7034 5.11142 5.08463C4.73016 5.46586 4.42662 5.91981 4.21819 6.42048C4.00977 6.92114 3.90055 7.45869 3.89679 8.00234C3.90022 8.54613 4.00918 9.08388 4.21741 9.58478C4.42564 10.0857 4.72905 10.5399 5.11026 10.9214C5.49147 11.3029 5.94298 11.6041 6.43892 11.8079C6.93485 12.0117 7.46547 12.114 8.00036 12.1089C8.53532 12.1141 9.06603 12.0119 9.56206 11.8081C10.0581 11.6044 10.5097 11.3032 10.891 10.9217C11.2723 10.5402 11.5758 10.0859 11.7841 9.58498C11.9923 9.08402 12.1013 8.5462 12.1048 8.00234ZM13.2293 3.732C13.2287 3.60497 13.2033 3.47932 13.1547 3.36228C13.1061 3.24525 13.0353 3.13914 12.9462 3.05005C12.8571 2.96097 12.7516 2.89067 12.6357 2.8432C12.5198 2.79573 12.3958 2.77204 12.2708 2.77347C12.1459 2.77204 12.0219 2.79573 11.906 2.8432C11.7901 2.89067 11.6845 2.96097 11.5954 3.05005C11.5064 3.13914 11.4355 3.24525 11.3869 3.36228C11.3383 3.47932 11.313 3.60497 11.3123 3.732C11.313 3.85903 11.3383 3.98468 11.3869 4.10171C11.4355 4.21875 11.5064 4.32486 11.5954 4.41395C11.6845 4.50303 11.7901 4.57333 11.906 4.6208C12.0219 4.66826 12.1459 4.69196 12.2708 4.69053C12.3958 4.69196 12.5198 4.66826 12.6357 4.6208C12.7516 4.57333 12.8571 4.50303 12.9462 4.41395C13.0353 4.32486 13.1061 4.21875 13.1547 4.10171C13.2033 3.98468 13.2287 3.85903 13.2293 3.732ZM8.00036 1.44056C9.16682 1.44056 11.6666 1.34696 12.7188 1.76313C13.0635 1.89518 13.3762 2.10127 13.6354 2.36733C13.9004 2.62524 14.1066 2.939 14.2396 3.28658C14.6563 4.3387 14.5626 6.83823 14.5626 8.00485C14.5626 9.17146 14.6563 11.671 14.2396 12.7231C14.1066 13.0707 13.9004 13.3845 13.6354 13.6424C13.3762 13.9084 13.0635 14.1145 12.7188 14.2466C11.6666 14.6644 9.16682 14.5691 8.00036 14.5691C6.8339 14.5691 4.33411 14.6627 3.28191 14.2466C2.93676 14.113 2.62409 13.9052 2.36534 13.6374C2.10036 13.3794 1.89413 13.0657 1.76115 12.7181C1.34438 11.666 1.43809 9.16645 1.43809 7.99983C1.43809 6.83322 1.34438 4.33369 1.76115 3.28157C1.89413 2.93399 2.10036 2.62022 2.36534 2.36231C2.62457 2.09626 2.9372 1.89017 3.28191 1.75812C4.33411 1.34696 6.8339 1.44056 8.00036 1.44056ZM15.9995 8.00234C15.9995 6.8984 16.0102 5.80449 15.9478 4.70056C15.9709 3.45298 15.5065 2.24697 14.6563 1.34696C13.7444 0.492283 12.5425 0.0295875 11.3025 0.0558284C10.1985 -0.00684787 9.10435 0.00401579 8.00036 0.00401579C6.89638 0.00401579 5.80225 -0.00601219 4.69827 0.0558284C3.45821 0.0295875 2.2563 0.492283 1.34438 1.34696C0.494213 2.24697 0.0298009 3.45298 0.0529706 4.70056C-0.00950377 5.80449 0.00118263 6.8984 0.00118263 8.00234C0.00118263 9.10628 -0.00950377 10.2002 0.0529706 11.3041C0.0298021 12.5521 0.494532 13.7585 1.3452 14.6586C2.25661 15.5144 3.45858 15.9784 4.69909 15.953C5.80307 16.0157 6.8972 16.0048 8.00118 16.0048C9.10517 16.0048 10.1993 16.0149 11.3033 15.953C12.5435 15.9781 13.7451 15.5142 14.6563 14.6586C15.507 13.7585 15.9717 12.5521 15.9486 11.3041C16.0102 10.2002 15.9995 9.10628 15.9995 8.00234Z" fill="black"/>
</g>
<defs>
<clipPath id="clip0_2071_18360">
<rect width="16" height="16" fill="white"/>
</clipPath>
</defs>
</svg>
