<svg width="96" height="12" viewBox="0 0 96 12" fill="none" xmlns="http://www.w3.org/2000/svg">
<g clip-path="url(#clip0_11052_32542)">
<path d="M66.9842 10.4402L64.249 1.05981H69.2909L70.327 5.4569H70.562L71.7084 1.05981H75.8663L77.0126 5.4569H77.2476L78.2837 1.05981H83.3256L80.5904 10.4402H75.1205L73.9187 5.88195H73.6559L72.4542 10.4402H66.9842Z" fill="black"/>
<path d="M56.7299 10.7333C51.6327 10.7333 49.1738 9.10632 49.1738 5.74991C49.1738 2.4521 51.6327 0.854492 56.7299 0.854492C61.7993 0.854492 64.2581 2.4521 64.2581 5.74991C64.2581 9.10632 61.8132 10.7333 56.7299 10.7333ZM54.6163 6.58534H58.7882V4.92913H54.6163V6.58534Z" fill="black"/>
<path d="M34.8711 10.4402V1.05981H44.1123C47.4551 1.05981 48.7675 2.02717 48.7675 4.51885C48.7675 7.43557 47.6347 8.38827 44.1123 8.41759H39.8439V10.4402H34.8711ZM39.8439 5.47157H43.1454V4.1964H39.8439V5.47157Z" fill="black"/>
<path d="M85.1362 10.7499C84.8581 10.3186 84.6223 9.84523 84.4288 9.32973C84.2352 8.81423 84.0875 8.26085 83.9855 7.66956C83.883 7.07656 83.832 6.4558 83.832 5.80721C83.832 5.15528 83.883 4.53198 83.9855 3.93731C84.0875 3.34265 84.2352 2.78757 84.4288 2.27209C84.6236 1.75491 84.8594 1.28238 85.1362 0.854492H85.9605C85.6728 1.36998 85.4413 1.88294 85.2657 2.39338C85.0913 2.90381 84.9636 3.43615 84.8821 3.99038C84.8019 4.54293 84.7622 5.14854 84.7622 5.80721C84.7622 6.45918 84.8019 7.0614 84.8821 7.61397C84.9636 8.16482 85.0913 8.69548 85.2657 9.2059C85.4413 9.71633 85.6728 10.231 85.9605 10.7499H85.1362Z" fill="black"/>
<path d="M93.1571 6.33643C92.9523 6.23608 92.7378 6.13052 92.5831 6.03017C92.3586 5.88763 92.3538 5.83483 92.3538 5.82952C92.3538 5.82952 92.3538 5.77145 92.5831 5.62887C92.7378 5.53383 92.9523 5.42826 93.1571 5.32265C93.7408 5.03222 94.0651 4.858 94.015 4.65735C93.96 4.45143 93.5861 4.47255 92.9274 4.52535C92.7077 4.54647 92.4833 4.56232 92.3089 4.56232C92.0544 4.56232 92.0195 4.52008 92.0195 4.5148C92.0195 4.5148 91.9994 4.46199 92.1241 4.22438C92.2139 4.0607 92.3438 3.86534 92.4684 3.66997C92.8376 3.105 93.0421 2.77235 92.9026 2.62451C92.7627 2.47666 92.4484 2.68787 91.9096 3.0786C91.7248 3.2106 91.5352 3.34789 91.3857 3.44293C91.1612 3.57493 91.1115 3.55381 91.1115 3.55381C91.1115 3.55381 91.0666 3.51686 91.0666 3.24757C91.0666 3.06277 91.0862 2.82516 91.1015 2.59811C91.1564 1.90113 91.176 1.5104 90.9764 1.45232C90.7872 1.39952 90.6225 1.74274 90.3431 2.35523C90.248 2.57172 90.1434 2.79347 90.0536 2.96244C89.9189 3.20004 89.8688 3.20532 89.864 3.20532C89.864 3.20532 89.8091 3.20532 89.6744 2.96244C89.5846 2.79876 89.48 2.57172 89.385 2.35523C89.1108 1.74274 88.946 1.39424 88.7512 1.45232C88.552 1.5104 88.5769 1.90113 88.6265 2.59811C88.6466 2.83043 88.6614 3.06805 88.6614 3.24757C88.6614 3.51686 88.6165 3.55381 88.6165 3.55381C88.6165 3.55381 88.5668 3.57493 88.3423 3.44293C88.1876 3.34789 87.998 3.2106 87.8184 3.0786C87.2797 2.68787 86.9702 2.47138 86.8255 2.62451C86.6807 2.77763 86.8852 3.105 87.2596 3.66997C87.3843 3.86534 87.5142 4.0607 87.604 4.22438C87.7334 4.46199 87.7086 4.5148 87.7086 4.5148C87.7086 4.5148 87.6737 4.56232 87.4191 4.56232C87.2448 4.56232 87.0203 4.54119 86.8006 4.52535C86.142 4.46727 85.7676 4.44615 85.7131 4.65735C85.6629 4.858 85.9872 5.03222 86.5709 5.32265C86.7758 5.42296 86.9902 5.52857 87.145 5.62887C87.3694 5.77145 87.3742 5.82426 87.3742 5.82952C87.3742 5.82952 87.3742 5.88763 87.145 6.03017C86.9902 6.12521 86.7758 6.23082 86.5709 6.33643C85.9872 6.62682 85.6629 6.80106 85.7131 7.00171C85.7676 7.21294 86.142 7.18653 86.8006 7.13373C87.0151 7.11259 87.2396 7.09676 87.4143 7.09676C87.4143 7.09676 87.4143 7.09676 87.4191 7.09676C87.6737 7.09676 87.7086 7.13904 87.7086 7.1443C87.7086 7.1443 87.7286 7.1971 87.604 7.43468C87.5142 7.59836 87.3843 7.79375 87.2596 7.98909C86.8904 8.55407 86.686 8.88674 86.8255 9.03458C86.9702 9.18243 87.2797 8.97121 87.8184 8.58047C88.0028 8.44846 88.1924 8.31119 88.3423 8.21615C88.5668 8.07887 88.6165 8.10527 88.6165 8.10527C88.6165 8.10527 88.6614 8.14224 88.6614 8.41153C88.6614 8.59631 88.6418 8.83393 88.6265 9.06098C88.5716 9.75793 88.552 10.1487 88.7512 10.2068C88.7665 10.2068 88.7765 10.212 88.7913 10.212C88.9661 10.212 89.1256 9.87411 89.385 9.29856C89.48 9.08208 89.5846 8.86033 89.6744 8.69135C89.8091 8.45377 89.8588 8.44846 89.864 8.44846C89.864 8.44846 89.9189 8.44846 90.0536 8.69135C90.1434 8.85507 90.248 9.08208 90.3431 9.29856C90.6172 9.91109 90.782 10.2595 90.9764 10.2015C91.176 10.1434 91.1512 9.75267 91.1015 9.05568C91.0815 8.82336 91.0666 8.58574 91.0666 8.40623C91.0666 8.13694 91.1115 8.10001 91.1115 8.10001C91.1115 8.10001 91.1612 8.07887 91.3857 8.21088C91.5404 8.30592 91.7301 8.4432 91.9096 8.57521C92.3285 8.88143 92.6132 9.07682 92.7827 9.07682C92.8328 9.07682 92.8677 9.06098 92.9026 9.02927C93.0473 8.88143 92.8424 8.54881 92.4684 7.98383C92.3438 7.78849 92.2139 7.5931 92.1241 7.42942C91.9946 7.1918 92.0195 7.13899 92.0195 7.13899C92.0195 7.13899 92.0544 7.09149 92.3089 7.09149H92.3137C92.4885 7.09149 92.713 7.11259 92.9274 7.12842C93.5861 7.18653 93.96 7.20763 94.015 6.99645C94.0651 6.7958 93.7408 6.62155 93.1571 6.33117V6.33643Z" fill="black"/>
<path d="M94.5913 10.7499C94.8694 10.3186 95.1052 9.84523 95.2987 9.32973C95.4918 8.81423 95.6396 8.26085 95.742 7.66956C95.8445 7.07656 95.8955 6.4558 95.8955 5.80721C95.8955 5.15528 95.8445 4.53198 95.742 3.93731C95.6396 3.34265 95.4918 2.78757 95.2987 2.27209C95.1035 1.75491 94.8681 1.28238 94.5913 0.854492H93.7666C94.0543 1.36998 94.2862 1.88294 94.4618 2.39338C94.6362 2.90381 94.7639 3.43615 94.8454 3.99038C94.9256 4.54293 94.9653 5.14854 94.9653 5.80721C94.9653 6.45918 94.9256 7.0614 94.8454 7.61397C94.7639 8.16482 94.6362 8.69548 94.4618 9.2059C94.2862 9.71633 94.0543 10.231 93.7666 10.7499H94.5913Z" fill="black"/>
<path d="M29.3999 11.3733C29.4522 11.3733 29.5023 11.3733 29.5503 11.3733C29.5982 11.3733 29.644 11.3733 29.6876 11.3733C29.7721 11.3733 29.8441 11.3608 29.9033 11.3356C29.9635 11.3113 30.0127 11.2753 30.0511 11.2276C30.0895 11.1799 30.1213 11.1197 30.1466 11.0468L30.3126 10.5732L30.3061 11.0401L29.2129 7.96484H29.8419L30.3492 9.55845C30.3972 9.71497 30.4421 9.86835 30.4839 10.0186C30.5267 10.1679 30.5681 10.3204 30.6082 10.476L30.4669 10.4801C30.5158 10.2948 30.562 10.1229 30.6055 9.96461C30.65 9.80538 30.6901 9.66909 30.7259 9.55575L31.2254 7.96484H31.8439L30.7363 11.1183C30.6683 11.3108 30.5899 11.4602 30.5009 11.5663C30.412 11.6734 30.3039 11.7494 30.1766 11.7943C30.0494 11.8393 29.8889 11.8618 29.6954 11.8618C29.6466 11.8618 29.5973 11.8605 29.5477 11.8578C29.498 11.856 29.4487 11.8537 29.3999 11.851V11.3733Z" fill="black"/>
<path d="M27.982 10.8147C27.7527 10.8147 27.5565 10.754 27.3935 10.6326C27.2314 10.5102 27.1084 10.3398 27.0247 10.1212C26.9411 9.90258 26.8992 9.648 26.8992 9.35743V9.34664C26.8992 9.05877 26.9411 8.80599 27.0247 8.58829C27.1093 8.3706 27.2327 8.20147 27.3948 8.08093C27.5578 7.96039 27.7536 7.90012 27.982 7.90012C28.2208 7.90012 28.4292 7.95994 28.607 8.07958C28.7857 8.19833 28.923 8.36745 29.0189 8.58694C29.1157 8.80644 29.1641 9.06327 29.1641 9.35743C29.1641 9.6516 29.1157 9.90842 29.0189 10.1279C28.923 10.3474 28.7857 10.517 28.607 10.6366C28.4292 10.7554 28.2208 10.8147 27.982 10.8147ZM26.5645 10.75V6.90698H27.1477V8.62338H27.0823V10.0969H27.1241V10.75H26.5645ZM27.8473 10.3101C27.9929 10.3101 28.1193 10.2714 28.2265 10.194C28.3346 10.1158 28.4178 10.0038 28.4763 9.85805C28.5355 9.71232 28.5652 9.53915 28.5652 9.33854C28.5652 9.13884 28.536 8.96926 28.4776 8.82983C28.4191 8.6895 28.3359 8.58335 28.2278 8.51138C28.1206 8.43941 27.9937 8.40343 27.8473 8.40343C27.6999 8.40343 27.5722 8.44121 27.4641 8.51678C27.356 8.59144 27.2728 8.70029 27.2144 8.84332C27.1559 8.98636 27.1267 9.15728 27.1267 9.35608C27.1267 9.55579 27.1559 9.72716 27.2144 9.87019C27.2728 10.0132 27.356 10.1225 27.4641 10.1981C27.5722 10.2728 27.6999 10.3101 27.8473 10.3101Z" fill="black"/>
<path d="M23.519 10.8147C23.2819 10.8147 23.074 10.7554 22.8953 10.6366C22.7174 10.517 22.5797 10.3474 22.4821 10.1279C22.3853 9.90752 22.3369 9.6507 22.3369 9.35743C22.3369 9.06417 22.3853 8.80779 22.4821 8.58829C22.5797 8.3679 22.7174 8.19833 22.8953 8.07958C23.074 7.95994 23.2819 7.90012 23.519 7.90012C23.7466 7.90012 23.9418 7.96084 24.1049 8.08228C24.2679 8.20282 24.3917 8.37195 24.4762 8.58964C24.5617 8.80644 24.6053 9.05877 24.607 9.34664V9.35743C24.607 9.6471 24.5647 9.90168 24.4802 10.1212C24.3956 10.3398 24.2718 10.5102 24.1088 10.6326C23.9458 10.754 23.7492 10.8147 23.519 10.8147ZM23.655 10.3114C23.8024 10.3114 23.9301 10.2741 24.0382 10.1994C24.1463 10.1239 24.2295 10.0146 24.2879 9.87154C24.3463 9.72851 24.3756 9.55759 24.3756 9.35878C24.3756 9.15908 24.3463 8.98771 24.2879 8.84467C24.2295 8.70164 24.1463 8.59279 24.0382 8.51813C23.9301 8.44256 23.8024 8.40478 23.655 8.40478C23.5094 8.40478 23.3826 8.44391 23.2745 8.52217C23.1664 8.59954 23.0832 8.71109 23.0247 8.85682C22.9663 9.00255 22.9371 9.17572 22.9371 9.37632C22.9371 9.57603 22.9663 9.74605 23.0247 9.88638C23.0832 10.0258 23.166 10.1315 23.2732 10.2035C23.3813 10.2755 23.5086 10.3114 23.655 10.3114ZM24.3769 10.75V10.0969H24.42V8.62338H24.3546V6.90698H24.9365V10.75H24.3769Z" fill="black"/>
<path d="M20.7309 10.8145C20.4711 10.8145 20.241 10.7556 20.0404 10.6378C19.8408 10.5199 19.6856 10.3513 19.5749 10.1318C19.4651 9.91226 19.4102 9.65453 19.4102 9.35857C19.4102 9.0698 19.4642 8.81522 19.5723 8.59483C19.6813 8.37353 19.8347 8.20261 20.0326 8.08207C20.2305 7.96062 20.4602 7.8999 20.7217 7.8999C20.9894 7.8999 21.2213 7.96287 21.4174 8.08881C21.6136 8.21475 21.7631 8.38837 21.8659 8.60967C21.9697 8.83007 22.0216 9.0806 22.0216 9.36127C22.0216 9.38915 22.0211 9.41839 22.0202 9.44898C22.0202 9.47866 22.0194 9.51015 22.0176 9.54343H19.707V9.10489H21.6384L21.4344 9.22363C21.4327 9.06081 21.4039 8.91643 21.3481 8.79048C21.2932 8.66364 21.2121 8.56424 21.1049 8.49227C20.9977 8.42031 20.8678 8.38432 20.7152 8.38432C20.5696 8.38432 20.4423 8.41851 20.3334 8.48688C20.2253 8.55435 20.1407 8.65735 20.0797 8.79588C20.0187 8.93352 19.9873 9.10444 19.9855 9.30864V9.41254C19.9855 9.61855 20.016 9.79037 20.0771 9.928C20.1381 10.0647 20.2248 10.1668 20.3373 10.2343C20.4497 10.3018 20.5836 10.3355 20.7387 10.3355C20.8512 10.3355 20.951 10.3175 21.0382 10.2815C21.1254 10.2456 21.1977 10.1947 21.2553 10.1291C21.3137 10.0625 21.3573 9.98287 21.386 9.89022H21.9575C21.9121 10.0746 21.8346 10.2366 21.7247 10.376C21.6149 10.5145 21.4754 10.6225 21.3063 10.6998C21.138 10.7763 20.9462 10.8145 20.7309 10.8145Z" fill="black"/>
<path d="M17.9087 10.8145C17.6794 10.8145 17.4833 10.7538 17.3203 10.6324C17.1581 10.51 17.0352 10.3396 16.9515 10.121C16.8678 9.90236 16.826 9.64778 16.826 9.35722V9.34642C16.826 9.05856 16.8678 8.80578 16.9515 8.58808C17.0361 8.37038 17.1594 8.20126 17.3216 8.08072C17.4846 7.96017 17.6803 7.8999 17.9087 7.8999C18.1476 7.8999 18.3559 7.95972 18.5338 8.07937C18.7125 8.19811 18.8498 8.36723 18.9457 8.58673C19.0425 8.80623 19.0908 9.06306 19.0908 9.35722C19.0908 9.65138 19.0425 9.90821 18.9457 10.1277C18.8498 10.3472 18.7125 10.5168 18.5338 10.6364C18.3559 10.7552 18.1476 10.8145 17.9087 10.8145ZM16.4912 11.8508V7.96467H17.0509V8.61372H17.009V10.0872H17.0744V11.8508H16.4912ZM17.774 10.3099C17.9196 10.3099 18.046 10.2712 18.1532 10.1938C18.2613 10.1156 18.3446 10.0036 18.403 9.85783C18.4623 9.7121 18.4919 9.53893 18.4919 9.33833C18.4919 9.13862 18.4627 8.96905 18.4043 8.82962C18.3459 8.68928 18.2627 8.58313 18.1546 8.51117C18.0473 8.4392 17.9205 8.40322 17.774 8.40322C17.6267 8.40322 17.499 8.441 17.3909 8.51656C17.2828 8.59123 17.1995 8.70008 17.1411 8.84311C17.0827 8.98614 17.0535 9.15706 17.0535 9.35587C17.0535 9.55558 17.0827 9.72695 17.1411 9.86998C17.1995 10.013 17.2828 10.1223 17.3909 10.1979C17.499 10.2725 17.6267 10.3099 17.774 10.3099Z" fill="black"/>
<path d="M14.6897 10.8149C14.4238 10.8149 14.1876 10.7551 13.981 10.6354C13.7752 10.5158 13.6148 10.3462 13.4998 10.1267C13.3847 9.90632 13.3271 9.65039 13.3271 9.35893C13.3271 9.06746 13.3847 8.81153 13.4998 8.59114C13.6148 8.37074 13.7752 8.20072 13.981 8.08108C14.1876 7.96143 14.4238 7.90161 14.6897 7.90161C14.9547 7.90161 15.1897 7.96143 15.3946 8.08108C15.6003 8.20072 15.7607 8.37074 15.8758 8.59114C15.9908 8.81153 16.0484 9.06746 16.0484 9.35893C16.0484 9.65039 15.9908 9.90632 15.8758 10.1267C15.7607 10.3462 15.6003 10.5158 15.3946 10.6354C15.1897 10.7551 14.9547 10.8149 14.6897 10.8149ZM14.6897 10.3116C14.8422 10.3116 14.9752 10.2747 15.0886 10.2009C15.2028 10.1272 15.2913 10.0188 15.354 9.87574C15.4168 9.7327 15.4482 9.56043 15.4482 9.35893C15.4482 9.15742 15.4168 8.98515 15.354 8.84212C15.2913 8.69819 15.2028 8.58934 15.0886 8.51557C14.9752 8.44181 14.8422 8.40492 14.6897 8.40492C14.5354 8.40492 14.4012 8.44181 14.287 8.51557C14.1728 8.58934 14.0843 8.69774 14.0215 8.84077C13.9587 8.9838 13.9274 9.15652 13.9274 9.35893C13.9274 9.56133 13.9587 9.73405 14.0215 9.87708C14.0843 10.0192 14.1728 10.1272 14.287 10.2009C14.4012 10.2747 14.5354 10.3116 14.6897 10.3116Z" fill="black"/>
<path d="M12.3027 10.75V6.90698H12.886V10.75H12.3027Z" fill="black"/>
<path d="M10.5717 10.8145C10.3119 10.8145 10.0818 10.7556 9.88127 10.6378C9.68163 10.5199 9.52646 10.3513 9.41574 10.1318C9.3059 9.91226 9.25098 9.65453 9.25098 9.35857C9.25098 9.0698 9.30503 8.81522 9.41313 8.59483C9.5221 8.37353 9.67553 8.20261 9.87342 8.08207C10.0713 7.96062 10.301 7.8999 10.5626 7.8999C10.8302 7.8999 11.0621 7.96287 11.2582 8.08881C11.4544 8.21475 11.6039 8.38837 11.7068 8.60967C11.8105 8.83007 11.8624 9.0806 11.8624 9.36127C11.8624 9.38915 11.8619 9.41839 11.8611 9.44898C11.8611 9.47866 11.8602 9.51015 11.8584 9.54343H9.54782V9.10489H11.4792L11.2752 9.22363C11.2735 9.06081 11.2447 8.91643 11.1889 8.79048C11.134 8.66364 11.0529 8.56424 10.9457 8.49227C10.8385 8.42031 10.7086 8.38432 10.556 8.38432C10.4104 8.38432 10.2832 8.41851 10.1742 8.48688C10.0661 8.55435 9.98152 8.65735 9.9205 8.79588C9.85947 8.93352 9.82809 9.10444 9.82635 9.30864V9.41254C9.82635 9.61855 9.85686 9.79037 9.91788 9.928C9.97891 10.0647 10.0656 10.1668 10.1781 10.2343C10.2906 10.3018 10.4244 10.3355 10.5796 10.3355C10.692 10.3355 10.7918 10.3175 10.879 10.2815C10.9662 10.2456 11.0385 10.1947 11.0961 10.1291C11.1545 10.0625 11.1981 9.98287 11.2269 9.89022H11.7983C11.753 10.0746 11.6754 10.2366 11.5655 10.376C11.4557 10.5145 11.3162 10.6225 11.1471 10.6998C10.9788 10.7763 10.787 10.8145 10.5717 10.8145Z" fill="black"/>
<path d="M7.53241 10.7499L6.49805 7.96484H7.12703L7.67625 9.5598C7.72855 9.72532 7.7765 9.88319 7.82009 10.0334C7.86455 10.1828 7.91075 10.351 7.9587 10.5381L7.75994 10.5435C7.80178 10.378 7.84668 10.2142 7.89463 10.0523C7.94257 9.89039 7.99357 9.72487 8.04762 9.55575L8.59292 7.96484H9.20621L8.17185 10.7499H7.53241Z" fill="black"/>
<path d="M5.16154 10.8145C4.90176 10.8145 4.67161 10.7556 4.4711 10.6378C4.27148 10.5199 4.1163 10.3513 4.00559 10.1318C3.89574 9.91226 3.84082 9.65453 3.84082 9.35857C3.84082 9.0698 3.89487 8.81522 4.00297 8.59483C4.11194 8.37353 4.26537 8.20261 4.46325 8.08207C4.66115 7.96062 4.89086 7.8999 5.15239 7.8999C5.42002 7.8999 5.65192 7.96287 5.84806 8.08881C6.04421 8.21475 6.19372 8.38837 6.29659 8.60967C6.40033 8.83007 6.4522 9.0806 6.4522 9.36127C6.4522 9.38915 6.45177 9.41839 6.4509 9.44898C6.4509 9.47866 6.45002 9.51015 6.44828 9.54343H4.13766V9.10489H6.06906L5.86506 9.22363C5.86332 9.06081 5.83455 8.91643 5.77876 8.79048C5.72384 8.66364 5.64276 8.56424 5.53553 8.49227C5.42831 8.42031 5.29841 8.38432 5.14585 8.38432C5.00027 8.38432 4.87299 8.41851 4.76402 8.48688C4.65592 8.55435 4.57135 8.65735 4.51033 8.79588C4.4493 8.93352 4.41792 9.10444 4.41618 9.30864V9.41254C4.41618 9.61855 4.44669 9.79037 4.50771 9.928C4.56874 10.0647 4.65548 10.1668 4.76794 10.2343C4.8804 10.3018 5.01421 10.3355 5.16939 10.3355C5.28185 10.3355 5.38167 10.3175 5.46884 10.2815C5.55602 10.2456 5.62838 10.1947 5.68591 10.1291C5.74432 10.0625 5.78791 9.98287 5.81668 9.89022H6.38813C6.3428 10.0746 6.26521 10.2366 6.15536 10.376C6.04552 10.5145 5.90604 10.6225 5.73691 10.6998C5.56866 10.7763 5.37687 10.8145 5.16154 10.8145Z" fill="black"/>
<path d="M0.30957 10.75V6.90698H1.66561C2.05094 6.90698 2.38265 6.983 2.66074 7.13503C2.93884 7.28615 3.15155 7.5061 3.29888 7.79487C3.44708 8.08363 3.52118 8.42817 3.52118 8.82848C3.52118 9.22789 3.44708 9.57198 3.29888 9.86075C3.15155 10.1486 2.9384 10.369 2.65944 10.5219C2.38134 10.674 2.04919 10.75 1.663 10.75H0.30957ZM1.65384 10.19C1.91538 10.19 2.13724 10.1369 2.31944 10.0308C2.50164 9.92462 2.63938 9.76989 2.73266 9.56658C2.82594 9.36328 2.87258 9.11725 2.87258 8.82848C2.87258 8.53972 2.82594 8.29368 2.73266 8.09038C2.63938 7.88707 2.50164 7.73234 2.31944 7.62619C2.13724 7.52004 1.91538 7.46697 1.65384 7.46697H0.933325V10.19H1.65384Z" fill="black"/>
<path d="M28.9292 4.51763C28.6921 4.51763 28.4842 4.45826 28.3054 4.33951C28.1276 4.21987 27.9899 4.0503 27.8922 3.8308C27.7955 3.6104 27.7471 3.35357 27.7471 3.06031C27.7471 2.76705 27.7955 2.51067 27.8922 2.29117C27.9899 2.07078 28.1276 1.90121 28.3054 1.78246C28.4842 1.66282 28.6921 1.603 28.9292 1.603C29.1567 1.603 29.352 1.66372 29.515 1.78516C29.678 1.9057 29.8018 2.07482 29.8864 2.29252C29.9718 2.50932 30.0154 2.76166 30.0172 3.04952V3.06031C30.0172 3.34998 29.9749 3.60456 29.8903 3.82406C29.8058 4.04266 29.682 4.21313 29.5189 4.33547C29.3559 4.45691 29.1593 4.51763 28.9292 4.51763ZM29.0652 4.01431C29.2125 4.01431 29.3402 3.97698 29.4483 3.90232C29.5564 3.82675 29.6397 3.71745 29.6981 3.57442C29.7565 3.43139 29.7857 3.26047 29.7857 3.06166C29.7857 2.86195 29.7565 2.69059 29.6981 2.54755C29.6397 2.40452 29.5564 2.29567 29.4483 2.22101C29.3402 2.14544 29.2125 2.10766 29.0652 2.10766C28.9196 2.10766 28.7928 2.14679 28.6847 2.22505C28.5766 2.30242 28.4933 2.41396 28.4349 2.5597C28.3765 2.70543 28.3473 2.8786 28.3473 3.0792C28.3473 3.27891 28.3765 3.44893 28.4349 3.58926C28.4933 3.7287 28.5761 3.8344 28.6834 3.90636C28.7915 3.97833 28.9187 4.01431 29.0652 4.01431ZM29.787 4.45286V3.79977H29.8302V2.32626H29.7648V0.609863H30.3467V4.45286H29.787Z" fill="black"/>
<path d="M24.9502 4.45313V1.66804H25.5125V2.33058H25.5334V4.45313H24.9502ZM26.7208 2.68411C26.7208 2.55907 26.6998 2.45562 26.658 2.37376C26.6162 2.291 26.5551 2.22938 26.4749 2.1889C26.3947 2.14842 26.2966 2.12818 26.1807 2.12818C26.0717 2.12818 25.9676 2.15606 25.8682 2.21184C25.7697 2.26671 25.689 2.35127 25.6263 2.46552C25.5644 2.57886 25.5334 2.71965 25.5334 2.88787H25.2418V2.30629H25.4026C25.4523 2.17046 25.5221 2.04991 25.6119 1.94466C25.7025 1.83851 25.8115 1.7553 25.9388 1.69503C26.0661 1.63386 26.2064 1.60327 26.3599 1.60327C26.556 1.60327 26.7243 1.6415 26.8646 1.71797C27.0058 1.79353 27.1139 1.90643 27.1889 2.05666C27.2648 2.20599 27.3027 2.3886 27.3027 2.6045V4.45313H26.7208V2.68411Z" fill="black"/>
<path d="M24.3364 4.47338C24.203 4.47338 24.0954 4.45224 24.0134 4.40996C23.9315 4.36768 23.8713 4.30336 23.833 4.217C23.7955 4.13064 23.7767 4.01909 23.7767 3.88235L23.7558 3.79869V2.87842V2.7165V2.44663C23.7558 2.36117 23.7388 2.291 23.7048 2.23612C23.6717 2.18125 23.6163 2.14032 23.5387 2.11333C23.4612 2.08545 23.357 2.0715 23.2262 2.0715C23.0893 2.0715 22.9791 2.08634 22.8954 2.11603C22.8126 2.14572 22.7498 2.19519 22.7071 2.26446C22.6643 2.33373 22.6391 2.42863 22.6312 2.54918H22.0519C22.0615 2.35037 22.1068 2.18125 22.1879 2.04182C22.2699 1.90148 22.3963 1.79353 22.5671 1.71797C22.738 1.6415 22.9586 1.60327 23.2288 1.60327C23.4877 1.60327 23.6987 1.63746 23.8617 1.70582C24.0247 1.77329 24.1433 1.86865 24.2174 1.99189C24.2924 2.11423 24.3299 2.26041 24.3299 2.43043V3.85537C24.3299 3.88685 24.3351 3.91384 24.3456 3.93633C24.356 3.95792 24.3726 3.97456 24.3953 3.98625C24.4179 3.99795 24.4471 4.0038 24.4829 4.0038C24.502 4.0038 24.523 4.0038 24.5456 4.0038C24.5683 4.0038 24.5914 4.0038 24.6149 4.0038V4.45313C24.5714 4.45943 24.5256 4.46438 24.4776 4.46798C24.4306 4.47158 24.3835 4.47338 24.3364 4.47338ZM22.8993 4.52195C22.7049 4.52195 22.5353 4.49047 22.3906 4.4275C22.2459 4.36453 22.1339 4.27097 22.0545 4.14683C21.9752 4.02269 21.9355 3.87246 21.9355 3.69614C21.9355 3.53871 21.9691 3.40108 22.0362 3.28323C22.1034 3.16449 22.2115 3.06644 22.3605 2.98907C22.5105 2.91081 22.7066 2.85863 22.949 2.83254L23.3583 2.78802C23.4472 2.77812 23.5204 2.76058 23.578 2.73539C23.6364 2.7093 23.6804 2.67287 23.71 2.62609C23.7406 2.57931 23.7558 2.51949 23.7558 2.44663L23.9166 2.53838C23.9149 2.69311 23.8988 2.8141 23.8683 2.90136C23.8378 2.98862 23.7881 3.05384 23.7192 3.09702C23.6512 3.1393 23.5544 3.16854 23.4289 3.18473L23.0693 3.23061C22.9359 3.2477 22.83 3.27514 22.7515 3.31292C22.6731 3.3498 22.6173 3.39748 22.5841 3.45595C22.551 3.51353 22.5345 3.58369 22.5345 3.66645C22.5345 3.75101 22.5519 3.82343 22.5868 3.8837C22.6225 3.94397 22.6761 3.99075 22.7476 4.02404C22.82 4.05642 22.9102 4.07261 23.0183 4.07261C23.1473 4.07261 23.2681 4.04653 23.3805 3.99435C23.493 3.94217 23.5836 3.86256 23.6525 3.75551C23.7214 3.64846 23.7558 3.51622 23.7558 3.3588H23.9284V3.69614C23.8901 3.87336 23.8251 4.02359 23.7336 4.14683C23.642 4.27007 23.5261 4.36363 23.3857 4.4275C23.2454 4.49047 23.0832 4.52195 22.8993 4.52195Z" fill="black"/>
<path d="M19.0395 4.51763C18.8024 4.51763 18.5945 4.45826 18.4158 4.33951C18.238 4.21987 18.1002 4.0503 18.0026 3.8308C17.9058 3.6104 17.8574 3.35357 17.8574 3.06031C17.8574 2.76705 17.9058 2.51067 18.0026 2.29117C18.1002 2.07078 18.238 1.90121 18.4158 1.78246C18.5945 1.66282 18.8024 1.603 19.0395 1.603C19.2671 1.603 19.4624 1.66372 19.6254 1.78516C19.7884 1.9057 19.9122 2.07482 19.9968 2.29252C20.0822 2.50932 20.1258 2.76166 20.1275 3.04952V3.06031C20.1275 3.34998 20.0852 3.60456 20.0007 3.82406C19.9161 4.04266 19.7923 4.21313 19.6293 4.33547C19.4663 4.45691 19.2697 4.51763 19.0395 4.51763ZM19.1755 4.01431C19.3229 4.01431 19.4506 3.97698 19.5587 3.90232C19.6668 3.82675 19.75 3.71745 19.8085 3.57442C19.8669 3.43139 19.8961 3.26047 19.8961 3.06166C19.8961 2.86195 19.8669 2.69059 19.8085 2.54755C19.75 2.40452 19.6668 2.29567 19.5587 2.22101C19.4506 2.14544 19.3229 2.10766 19.1755 2.10766C19.03 2.10766 18.9031 2.14679 18.795 2.22505C18.6869 2.30242 18.6037 2.41396 18.5453 2.5597C18.4868 2.70543 18.4576 2.8786 18.4576 3.0792C18.4576 3.27891 18.4868 3.44893 18.5453 3.58926C18.6037 3.7287 18.6865 3.8344 18.7937 3.90636C18.9018 3.97833 19.0291 4.01431 19.1755 4.01431ZM19.8974 4.45286V3.79977H19.9405V2.32626H19.8751V0.609863H20.457V4.45286H19.8974Z" fill="black"/>
<path d="M16.2514 4.5179C15.9916 4.5179 15.7615 4.45898 15.561 4.34114C15.3613 4.22329 15.2061 4.05462 15.0954 3.83512C14.9856 3.61563 14.9307 3.3579 14.9307 3.06194C14.9307 2.77317 14.9847 2.51859 15.0928 2.2982C15.2018 2.0769 15.3552 1.90598 15.5531 1.78544C15.751 1.66399 15.9807 1.60327 16.2422 1.60327C16.5099 1.60327 16.7418 1.66624 16.9379 1.79218C17.1341 1.91812 17.2836 2.09174 17.3864 2.31304C17.4902 2.53344 17.5421 2.78397 17.5421 3.06464C17.5421 3.09252 17.5416 3.12176 17.5408 3.15234C17.5408 3.18203 17.5399 3.21352 17.5381 3.2468H15.2275V2.80826H17.1589L16.9549 2.927C16.9532 2.76418 16.9244 2.61979 16.8686 2.49385C16.8137 2.36701 16.7326 2.26761 16.6254 2.19564C16.5182 2.12368 16.3883 2.08769 16.2357 2.08769C16.0901 2.08769 15.9628 2.12188 15.8539 2.19025C15.7458 2.25771 15.6612 2.36072 15.6002 2.49925C15.5392 2.63689 15.5078 2.80781 15.506 3.01201V3.11591C15.506 3.32192 15.5365 3.49373 15.5976 3.63137C15.6586 3.76811 15.7453 3.87021 15.8578 3.93768C15.9703 4.00514 16.1041 4.03888 16.2592 4.03888C16.3717 4.03888 16.4715 4.02089 16.5587 3.9849C16.6459 3.94892 16.7182 3.89809 16.7758 3.83243C16.8342 3.76586 16.8778 3.68624 16.9065 3.59359H17.478C17.4327 3.778 17.3551 3.93993 17.2452 4.07936C17.1354 4.21789 16.9959 4.32584 16.8268 4.40321C16.6585 4.47967 16.4667 4.5179 16.2514 4.5179Z" fill="black"/>
<path d="M13.2783 4.45279V1.66769H13.8406V2.37341H13.8615V4.45279H13.2783ZM13.7151 2.74584C13.7151 2.56052 13.7491 2.38241 13.8171 2.21149C13.8851 2.04057 13.9906 1.90023 14.1335 1.79048C14.2774 1.67984 14.457 1.62451 14.6723 1.62451C14.6976 1.62451 14.7228 1.62541 14.7481 1.62721C14.7734 1.62901 14.7996 1.63126 14.8266 1.63396V2.19125C14.8004 2.19125 14.7752 2.19125 14.7507 2.19125C14.7272 2.19125 14.705 2.19125 14.6841 2.19125C14.5123 2.19125 14.365 2.22093 14.2421 2.2803C14.1191 2.33968 14.025 2.42918 13.9596 2.54883C13.8942 2.66847 13.8615 2.81645 13.8615 2.99277H13.7151V2.74584Z" fill="black"/>
<path d="M11.5473 4.5179C11.2875 4.5179 11.0574 4.45898 10.8569 4.34114C10.6572 4.22329 10.502 4.05462 10.3913 3.83512C10.2815 3.61563 10.2266 3.3579 10.2266 3.06194C10.2266 2.77317 10.2806 2.51859 10.3887 2.2982C10.4977 2.0769 10.6511 1.90598 10.849 1.78544C11.0469 1.66399 11.2766 1.60327 11.5381 1.60327C11.8058 1.60327 12.0377 1.66624 12.2338 1.79218C12.43 1.91812 12.5795 2.09174 12.6823 2.31304C12.7861 2.53344 12.838 2.78397 12.838 3.06464C12.838 3.09252 12.8375 3.12176 12.8367 3.15234C12.8367 3.18203 12.8358 3.21352 12.834 3.2468H10.5234V2.80826H12.4548L12.2508 2.927C12.2491 2.76418 12.2203 2.61979 12.1645 2.49385C12.1096 2.36701 12.0285 2.26761 11.9213 2.19564C11.8141 2.12368 11.6842 2.08769 11.5316 2.08769C11.386 2.08769 11.2587 2.12188 11.1498 2.19025C11.0417 2.25771 10.9571 2.36072 10.8961 2.49925C10.8351 2.63689 10.8037 2.80781 10.8019 3.01201V3.11591C10.8019 3.32192 10.8324 3.49373 10.8935 3.63137C10.9545 3.76811 11.0412 3.87021 11.1537 3.93768C11.2662 4.00514 11.4 4.03888 11.5551 4.03888C11.6676 4.03888 11.7674 4.02089 11.8546 3.9849C11.9418 3.94892 12.0141 3.89809 12.0717 3.83243C12.1301 3.76586 12.1737 3.68624 12.2024 3.59359H12.7739C12.7286 3.778 12.651 3.93993 12.5411 4.07936C12.4313 4.21789 12.2918 4.32584 12.1227 4.40321C11.9544 4.47967 11.7626 4.5179 11.5473 4.5179Z" fill="black"/>
<path d="M6.98186 4.45306L6.12012 1.66797H6.74518L7.05509 2.79334C7.11437 3.01464 7.16581 3.2103 7.2094 3.38032C7.25386 3.55034 7.30181 3.74644 7.35324 3.96864H7.25909C7.31401 3.73655 7.36544 3.52785 7.41339 3.34253C7.46134 3.15632 7.5106 2.97281 7.56116 2.79199L7.87761 1.66797H8.42683L8.74328 2.79334C8.80256 3.00384 8.85618 3.2022 8.90412 3.38841C8.95207 3.57372 8.99915 3.76713 9.04535 3.96864H8.9512C8.99217 3.78692 9.03838 3.59307 9.08981 3.38706C9.14125 3.18106 9.19312 2.98315 9.24542 2.79334L9.55534 1.66797H10.1804L9.31734 4.45306H8.71844L8.37714 3.24808C8.3257 3.06456 8.2795 2.89409 8.23853 2.73667C8.19842 2.57834 8.15048 2.38223 8.09468 2.14834H8.20583C8.15527 2.35525 8.10776 2.54371 8.0633 2.71373C8.01884 2.88375 7.97046 3.06231 7.91815 3.24943L7.58077 4.45306H6.98186Z" fill="black"/>
<path d="M4.71315 4.51778C4.44726 4.51778 4.21103 4.45795 4.00442 4.33831C3.79868 4.21867 3.63827 4.0491 3.5232 3.8296C3.40812 3.6092 3.35059 3.35327 3.35059 3.06181C3.35059 2.77035 3.40812 2.51442 3.5232 2.29402C3.63827 2.07362 3.79868 1.9036 4.00442 1.78396C4.21103 1.66431 4.44726 1.60449 4.71315 1.60449C4.97817 1.60449 5.21312 1.66431 5.41798 1.78396C5.62372 1.9036 5.78413 2.07362 5.8992 2.29402C6.01427 2.51442 6.07181 2.77035 6.07181 3.06181C6.07181 3.35327 6.01427 3.6092 5.8992 3.8296C5.78413 4.0491 5.62372 4.21867 5.41798 4.33831C5.21312 4.45795 4.97817 4.51778 4.71315 4.51778ZM4.71315 4.01446C4.86571 4.01446 4.99866 3.97758 5.11199 3.90381C5.22619 3.83005 5.31468 3.72165 5.37744 3.57862C5.44021 3.43558 5.4716 3.26331 5.4716 3.06181C5.4716 2.8603 5.44021 2.68803 5.37744 2.545C5.31468 2.40107 5.22619 2.29222 5.11199 2.21845C4.99866 2.14469 4.86571 2.10781 4.71315 2.10781C4.55885 2.10781 4.4246 2.14469 4.31041 2.21845C4.19621 2.29222 4.10772 2.40062 4.04495 2.54365C3.98219 2.68668 3.9508 2.8594 3.9508 3.06181C3.9508 3.26421 3.98219 3.43693 4.04495 3.57997C4.10772 3.7221 4.19621 3.83005 4.31041 3.90381C4.4246 3.97758 4.55885 4.01446 4.71315 4.01446Z" fill="black"/>
<path d="M0.30957 4.45286V0.609863H1.92322C2.19957 0.609863 2.43452 0.661139 2.62805 0.763691C2.82158 0.866241 2.96717 1.00972 3.06481 1.19414C3.16332 1.37855 3.21257 1.59265 3.21257 1.83644C3.21257 2.08202 3.16332 2.29747 3.06481 2.48278C2.96717 2.6681 2.82158 2.81203 2.62805 2.91458C2.43452 3.01713 2.19957 3.06841 1.92322 3.06841H0.933325V4.45286H0.30957ZM1.88922 2.50977C2.03917 2.50977 2.16514 2.48368 2.26714 2.43151C2.37001 2.37843 2.44672 2.30197 2.49729 2.20211C2.54872 2.10136 2.57444 1.97947 2.57444 1.83644C2.57444 1.6934 2.54872 1.57241 2.49729 1.47346C2.44672 1.3736 2.37001 1.29804 2.26714 1.24676C2.16514 1.19459 2.03917 1.1685 1.88922 1.1685H0.933325V2.50977H1.88922Z" fill="black"/>
</g>
<defs>
<clipPath id="clip0_11052_32542">
<rect width="97.4243" height="11.5138" fill="white" transform="translate(0 0.404785)"/>
</clipPath>
</defs>
</svg>
