<svg width="182" height="23" viewBox="0 0 182 23" fill="none" xmlns="http://www.w3.org/2000/svg">
<path fill-rule="evenodd" clip-rule="evenodd" d="M21.0075 22.2604H12.1737V5.69613L0 5.69038L0.00582195 0.334473H33.0881V5.69613L21.0037 5.69038L21.0075 22.2604Z" fill="black"/>
<path fill-rule="evenodd" clip-rule="evenodd" d="M40.5058 0.334473H49.3416V13.3696C49.3416 14.8514 49.755 15.8348 50.6729 16.3351C51.5908 16.8354 53.5062 17.0751 56.5045 17.0789H61.5017C64.0071 17.0789 65.6722 16.8374 66.4989 16.2546C67.3353 15.762 67.7584 14.7709 67.7584 13.3696V0.33639H76.5903V15.4188C76.5903 17.976 75.6685 19.7933 73.8404 20.9434C72.0045 22.0207 68.8374 22.5172 64.3312 22.5172H54.4222C49.0874 22.5172 45.5108 22.0169 43.4983 20.9434C41.5072 19.9543 40.5 18.068 40.5 15.4246V0.33639L40.5058 0.334473Z" fill="black"/>
<path fill-rule="evenodd" clip-rule="evenodd" d="M111.92 8.24947V8.00794C111.929 7.61414 111.825 7.22594 111.618 6.8888C111.412 6.55167 111.113 6.27959 110.756 6.10442C110.009 5.69612 108.844 5.52934 107.263 5.52934H100.173C97.0878 5.52934 95.1723 5.77471 94.2564 6.34595C93.4219 6.93637 93.0124 8.07119 93.0046 9.81752V12.8693C93.0046 14.5217 93.5111 15.5932 94.433 16.1568C95.4266 16.7319 97.2547 17.0693 100.179 17.0693H105.254C108.083 17.0693 109.912 16.8316 110.839 16.4099C111.664 15.9996 112.172 15.1753 112.172 14.0175V13.7722H121.086C121.092 13.8341 121.123 13.8911 121.171 13.9313C121.171 14.5964 121.171 15.0814 121.171 15.3345C121.171 16.7376 121.01 17.976 120.508 18.8846C120.022 19.8294 119.229 20.5856 118.256 21.0316C117.336 21.6067 116.085 21.9383 114.501 22.1817C112.918 22.4252 110.597 22.5153 107.592 22.5153H97.67C94.6697 22.5153 92.4147 22.4309 91.0096 22.1817C89.7202 21.9923 88.4766 21.572 87.3399 20.9415C86.1755 20.2073 85.3333 19.383 84.7569 18.3019C84.2562 17.3223 84.0039 16.0015 84.0039 14.5198V8.50059C84.0039 5.36257 84.9218 3.13317 86.9149 1.89484C88.9079 0.656497 92.4943 0.00282421 97.6641 0.00282421H107.587C109.92 -0.0128089 112.252 0.0978995 114.573 0.334453C116.077 0.570236 117.239 0.909533 118.159 1.4041C119.034 1.93503 119.729 2.71199 120.154 3.63541C120.577 4.46353 120.826 5.60985 120.826 7.01497V7.7549C120.839 7.92338 120.81 8.0925 120.742 8.24755L111.92 8.24947Z" fill="black"/>
<path fill-rule="evenodd" clip-rule="evenodd" d="M156.412 8.25331V8.00219C156.412 7.17983 156.086 6.52424 155.333 6.10443C154.581 5.68462 153.414 5.52935 151.755 5.52935H144.67C141.664 5.52935 139.672 5.77472 138.836 6.34596C138 6.91721 137.499 8.0712 137.499 9.81753V12.8693C137.499 14.5217 138 15.5837 139.001 16.1568C139.915 16.7319 141.834 17.0731 144.67 17.0693H149.836C152.665 17.0693 154.493 16.8316 155.337 16.4099C156.255 15.9996 156.667 15.1792 156.667 14.0175V13.7722H165.673V13.9408C165.728 14.4066 165.754 14.8752 165.751 15.344C165.751 16.7472 165.501 17.9741 165.002 18.8846C164.551 19.8252 163.785 20.5834 162.834 21.0316C161.922 21.6067 160.668 21.9383 159.087 22.1817C157.505 22.4252 155.174 22.5153 152.083 22.5153H142.253C139.172 22.5153 136.996 22.4271 135.5 22.1779C134.217 21.9751 132.978 21.5569 131.838 20.9415C130.674 20.2054 129.828 19.3811 129.333 18.3076C128.75 17.3223 128.494 15.9977 128.5 14.514V8.49101C128.49 5.36258 129.496 3.13702 131.495 1.90251C133.412 0.662257 136.994 0.00283254 142.248 0.00283254H152.071C154.441 -0.0195905 156.81 0.0911307 159.166 0.334461C160.663 0.575995 161.827 0.909541 162.659 1.40219C163.554 1.93284 164.277 2.70502 164.742 3.62775C165.157 4.45587 165.405 5.60986 165.405 7.01497C165.405 7.25651 165.405 7.59005 165.405 7.75107C165.405 7.9121 165.328 8.08654 165.328 8.24756H156.401L156.412 8.25331Z" fill="black"/>
<path fill-rule="evenodd" clip-rule="evenodd" d="M181.999 22.2603L173.082 22.2661L173.086 0.334473H181.999V22.2603Z" fill="black"/>
</svg>
