<svg width="32" height="32" viewBox="0 0 32 32" fill="none" xmlns="http://www.w3.org/2000/svg">
<path d="M25.8824 25.5477L20.1726 19.6183C23.2471 16.3974 23.2471 11.2732 20.0994 8.12549C16.9517 4.90458 11.9007 4.83138 8.60661 7.83268C5.3125 10.9072 5.09289 15.9582 8.02099 19.3255C10.9491 22.6928 16.0733 23.132 19.5138 20.2771L25.2236 26.2065C25.37 26.3529 25.4432 26.3529 25.5896 26.3529C25.736 26.3529 25.8092 26.3529 25.8824 26.2065C25.9556 26.1333 26.0288 26.0601 26.0288 25.9137C26.0288 25.7673 25.9556 25.6941 25.8824 25.5477ZM14.2432 6.51504C18.3426 6.51504 21.6367 9.80915 21.6367 13.8353C21.6367 17.8614 18.3426 21.1556 14.3164 21.1556C10.2171 21.1556 6.92295 17.8614 6.92295 13.8353C6.99616 9.80915 10.2171 6.51504 14.2432 6.51504Z" fill="black"/>
</svg>
