<svg width="52" height="52" viewBox="0 0 52 52" fill="none" xmlns="http://www.w3.org/2000/svg">
<g clip-path="url(#clip0_2104_16972)">
<path d="M25.9 51.8C40.2042 51.8 51.8 40.2042 51.8 25.9C51.8 11.5958 40.2042 0 25.9 0C11.5958 0 0 11.5958 0 25.9C0 40.2042 11.5958 51.8 25.9 51.8Z" fill="#2FCC60"/>
<path fill-rule="evenodd" clip-rule="evenodd" d="M38.9 25.3C38.7 18.4 33.1 12.9 26.1 12.9C19.2 12.9 13.6 18.3 13.3 25C13.3 25.2 13.3 25.4 13.3 25.6C13.3 28 14 30.2 15.1 32.1L12.9 39L20 36.8C21.8 37.8 23.9 38.4 26.2 38.4C33.3 38.4 39 32.7 39 25.7C39 25.5 39 25.4 38.9 25.3ZM26.2 36.3C24 36.3 22 35.7 20.3 34.5L16.2 35.8L17.5 31.8C16.2 30 15.5 27.9 15.5 25.6C15.5 25.3 15.5 24.9 15.6 24.6C16 19.2 20.6 15 26.2 15C31.8 15 36.5 19.3 36.9 24.8C36.9 25.1 36.9 25.4 36.9 25.6C36.9 31.5 32.1 36.3 26.2 36.3Z" fill="white"/>
<path fill-rule="evenodd" clip-rule="evenodd" d="M32 28.2C31.7 28 30.1 27.3 29.9 27.2C29.6 27.1 29.4 27 29.2 27.4C29 27.7 28.4 28.4 28.2 28.6C28 28.8 27.8 28.8 27.5 28.7C27.2 28.5 26.2 28.2 25 27.2C24.1 26.4 23.4 25.4 23.3 25.1C23.1 24.8 23.3 24.6 23.4 24.5C23.5 24.4 23.7 24.1 23.9 24C23.9 23.9 24 23.9 24 23.9C24.1 23.8 24.1 23.7 24.2 23.5C24.3 23.3 24.3 23.1 24.2 23C24.1 22.8 23.5 21.3 23.2 20.7C22.9 20.1 22.7 20.2 22.5 20.2C22.3 20.2 22.1 20.2 21.9 20.2C21.7 20.2 21.3 20.3 21.1 20.6C20.8 20.9 20 21.7 20 23.2C20 23.6 20.1 23.9 20.2 24.3C20.5 25.4 21.2 26.3 21.3 26.5C21.5 26.7 23.5 29.9 26.6 31.2C29.8 32.4 29.8 32 30.4 32C31 32 32.3 31.3 32.5 30.5C32.8 29.8 32.8 29.2 32.7 29C32.6 28.4 32.3 28.3 32 28.2Z" fill="white"/>
</g>
<defs>
<clipPath id="clip0_2104_16972">
<rect width="51.9" height="51.9" fill="white"/>
</clipPath>
</defs>
</svg>
